<?xml version="1.0" encoding="UTF-8"?>
<!DOCTYPE svg PUBLIC "-//W3C//DTD SVG 1.0//EN" "http://www.w3.org/TR/2001/REC-SVG-20010904/DTD/svg10.dtd">
<!-- Creator: CorelDRAW 2019 (64-Bit) -->
<svg xmlns="http://www.w3.org/2000/svg" xml:space="preserve" width="16.9332mm" height="4.6566mm" version="1.0" style="shape-rendering:geometricPrecision; text-rendering:geometricPrecision; image-rendering:optimizeQuality; fill-rule:evenodd; clip-rule:evenodd"
viewBox="0 0 1693.32 465.66"
 xmlns:xlink="http://www.w3.org/1999/xlink"
 xmlns:xodm="http://www.corel.com/coreldraw/odm/2003">
 <defs>
  <style type="text/css">
   <![CDATA[
    .fil0 {fill:#61B0B0;fill-rule:nonzero}
    .fil1 {fill:#D1A54C;fill-rule:nonzero}
   ]]>
  </style>
 </defs>
 <g id="Layer_x0020_1">
  <metadata id="CorelCorpID_0Corel-Layer"/>
  <g id="_1704974039120">
   <path class="fil0" d="M104.13 349.31c1.25,2.16 1.04,3.71 -0.63,4.65 -1.66,0.95 -3.84,1.42 -6.55,1.42 -2.7,0 -5.56,-0.47 -8.58,-1.42 -3.02,-0.94 -5.46,-2.22 -7.34,-3.84 -4.57,-5.66 -7.79,-12.13 -9.67,-19.4 -1.25,-4.85 -1.87,-9.97 -1.87,-15.36 0,-5.39 0.46,-10.51 1.4,-15.36 0.94,-4.85 2.24,-9.36 3.9,-13.54 1.67,-4.18 3.44,-7.48 5.31,-9.9l-0.31 0c7.91,-12.13 17.53,-22.37 28.86,-30.72 11.35,-8.36 23.78,-15.23 37.3,-20.62 2.29,-10.78 4.78,-21.49 7.49,-32.13 2.7,-10.65 5.51,-21.09 8.43,-31.33 1.66,-6.2 3.32,-12.26 4.99,-18.19 1.67,-5.93 3.23,-11.86 4.68,-17.78 -6.66,1.34 -13.26,2.76 -19.82,4.24 -6.55,1.48 -12.95,3.03 -19.19,4.65 -7.28,2.42 -15.66,5.93 -25.12,10.51 -9.47,4.58 -18.16,10.04 -26.06,16.37 -7.91,6.33 -14.2,13.34 -18.88,21.02 -4.68,7.68 -5.98,15.7 -3.91,24.05 1.25,5.39 4.17,10.85 8.74,16.37 4.58,5.52 11.55,11.38 20.92,17.58l1.55 2.02c1.46,2.43 1.1,4.45 -1.09,6.07 -2.18,1.61 -5.57,2.42 -10.14,2.42 -5,0 -10.92,-0.94 -17.79,-2.83 -6.87,-1.89 -13,-5.12 -18.41,-9.7 -3.96,-4.85 -7.23,-9.5 -9.84,-13.94 -2.59,-4.45 -4.62,-9.37 -6.08,-14.76 -0.83,-3.5 -1.46,-7.21 -1.87,-11.11 -0.42,-3.91 -0.52,-8.16 -0.31,-12.74 0.2,-15.63 4.57,-29.17 13.1,-40.62 8.53,-11.45 19.82,-21.36 33.86,-29.71 14.05,-8.35 30.02,-15.36 47.91,-21.02 17.89,-5.66 36.31,-10.31 55.24,-13.94 18.93,-3.64 37.66,-6.6 56.17,-8.9 18.52,-2.29 35.48,-4.24 50.87,-5.86 13.94,-1.34 26.01,-2.76 36.21,-4.24 10.19,-1.48 17.89,-3.3 23.09,-5.46 1.87,3.51 3.22,7.95 4.06,13.34 0.83,5.39 1.25,10.71 1.25,15.97 0,5.25 -0.42,9.9 -1.25,13.94 -0.84,4.05 -2.08,6.2 -3.75,6.47l-40.88 3.64c-18.31,1.61 -36.77,3.43 -55.4,5.45 -18.62,2.02 -37.08,4.52 -55.39,7.48 2.71,1.89 5.51,3.91 8.43,6.07 2.91,2.15 5.56,4.38 7.95,6.66 2.4,2.29 4.27,4.38 5.62,6.27 1.35,1.88 2.03,3.37 2.03,4.45 -1.67,11.04 -3.9,21.89 -6.71,32.54 -2.81,10.64 -5.88,21.08 -9.21,31.32 9.37,-2.16 18.68,-3.97 27.94,-5.45 9.25,-1.49 18.57,-3.04 27.93,-4.65 8.11,-1.35 16.28,-2.77 24.5,-4.25 8.22,-1.48 16.28,-3.03 24.18,-4.65 1.88,0.54 2.97,2.83 3.28,6.87 0.31,4.05 0.1,8.36 -0.63,12.94 -0.72,4.58 -1.77,8.89 -3.12,12.94 -1.35,4.04 -2.86,6.19 -4.52,6.46l-14.67 0.81c-13.94,1.08 -29.23,2.49 -45.88,4.24 -16.64,1.76 -33.29,4.65 -49.93,8.7 -2.5,8.08 -4.74,16.3 -6.71,24.65 -1.98,8.35 -3.54,16.91 -4.68,25.67 -1.14,8.76 -1.72,17.78 -1.72,27.08 0,9.3 0.83,19.07 2.5,29.31 1.46,8.62 5.67,14.62 12.64,17.98 6.97,3.37 15.34,5.06 25.12,5.06 7.29,0 14.88,-0.74 22.78,-2.23 7.91,-1.48 15.61,-3.43 23.1,-5.86 7.49,-2.42 14.35,-5.05 20.6,-7.88 6.24,-2.83 11.44,-5.59 15.6,-8.29l0 0.41c3.12,-2.97 6.03,-2.77 8.74,0.6 2.7,3.37 4.78,8.02 6.24,13.95 1.46,5.39 2.08,10.91 1.87,16.57 -0.2,5.66 -1.76,9.57 -4.68,11.73 -8.53,4.57 -19.4,8.55 -32.61,11.92 -13.21,3.37 -27.1,5.05 -41.67,5.05 -9.98,0 -19.86,-0.94 -29.64,-2.83 -9.78,-1.88 -18.73,-4.98 -26.84,-9.29 -8.12,-4.32 -15.14,-9.91 -21.07,-16.78 -5.93,-6.87 -10.14,-15.29 -12.64,-25.26 -3.95,-16.17 -6.03,-32.2 -6.24,-48.11 -0.21,-15.89 0.73,-31.66 2.81,-47.29 -8.74,4.32 -16.75,9.23 -24.03,14.76 -7.28,5.52 -13.42,11.79 -18.42,18.79 -2.07,3.24 -4,8.29 -5.76,15.16 -1.78,6.87 -1.73,14.08 0.15,21.63 1.66,6.73 5.3,12.52 10.92,17.38l1.25 1.61zm349.53 -44.46c-0.62,6.2 -1.08,12.26 -1.4,18.19 -0.31,5.93 0.05,11.05 1.09,15.36 1.04,3.23 2.18,5.12 3.43,5.66l3.75 0c5.41,-1.89 10.14,-5.12 14.2,-9.7 4.06,-4.58 7.65,-9.84 10.77,-15.77 3.12,-5.93 5.87,-12.26 8.27,-18.99 2.39,-6.74 4.63,-13.21 6.7,-19.41l3.44 -10.1c0.42,-1.08 1.56,-1.42 3.43,-1.01 1.87,0.4 3.8,1.28 5.78,2.62 1.97,1.35 3.64,2.9 4.99,4.65 1.35,1.76 1.82,3.44 1.41,5.06l-4.37 11.72c-3.75,11.32 -8.17,22.9 -13.27,34.76 -5.09,11.86 -11.28,21.83 -18.57,29.91 -1.24,1.35 -2.86,2.9 -4.84,4.65 -1.97,1.75 -4.26,3.44 -6.86,5.05 -2.6,1.62 -5.57,2.97 -8.89,4.04 -3.33,1.08 -6.97,1.49 -10.93,1.22 -10.4,-0.81 -18.67,-4.38 -24.81,-10.71 -6.13,-6.34 -10.35,-13.95 -12.64,-22.84l-0.62 -2.43c-5.62,9.16 -12.17,17.12 -19.66,23.85 -7.49,6.74 -15.61,10.24 -24.35,10.51 -7.69,-0.81 -14.46,-2.76 -20.28,-5.86 -5.83,-3.1 -10.77,-6.87 -14.83,-11.32 -4.05,-4.44 -7.33,-9.23 -9.83,-14.35 -2.49,-5.12 -4.26,-9.97 -5.3,-14.55 -0.63,-2.15 -1.04,-4.04 -1.25,-5.66 -0.21,-1.62 -0.41,-3.1 -0.62,-4.44 -1.25,-10.78 -0.42,-22.78 2.49,-35.98 2.91,-13.2 7.75,-25.6 14.51,-37.19 6.77,-11.58 15.3,-21.35 25.6,-29.3 10.29,-7.95 22.1,-11.93 35.42,-11.93 2.91,0 5.67,0.14 8.27,0.41 2.6,0.27 5.25,0.81 7.95,1.61 7.29,1.89 13.43,5.93 18.42,12.13l2.19 -7.68 4.36 -17.38c4.17,-14.55 7.29,-29.57 9.37,-45.07 2.08,-15.49 3.11,-29.03 3.11,-40.62 2.09,-1.35 5.47,-1.22 10.15,0.4 4.68,1.62 9.36,4.05 14.04,7.28 4.68,3.23 8.74,6.94 12.17,11.12 3.44,4.17 5.05,8.28 4.84,12.32 -0.42,2.97 -1.14,7.15 -2.18,12.53 -1.05,5.39 -2.29,11.46 -3.75,18.19 -1.45,6.74 -3.07,13.81 -4.84,21.22 -1.76,7.41 -3.48,14.49 -5.14,21.23l0 -0.41 -4.06 16.17 0.31 0c-3.54,12.93 -6.82,26.14 -9.83,39.61 -3.02,13.47 -5.36,27.22 -7.02,41.23l-0.32 0zm-72.4 34.76c2.91,-1.07 6.09,-3.64 9.52,-7.68 3.43,-4.04 6.76,-8.55 9.99,-13.54 3.22,-4.98 6.24,-10.24 9.05,-15.76 2.81,-5.53 5.04,-10.58 6.71,-15.16l0.93 -10.11c1.04,-7 2.19,-13.74 3.44,-20.21 1.24,-6.46 2.6,-12.93 4.06,-19.4 -1.67,-3.5 -3.91,-6.67 -6.72,-9.5 -2.81,-2.83 -6.71,-4.38 -11.7,-4.64 -8.11,-0.27 -15.19,2.42 -21.22,8.08 -6.03,5.66 -11.08,12.66 -15.14,21.02 -4.05,8.35 -7.18,17.38 -9.36,27.08 -2.18,9.7 -3.38,18.32 -3.59,25.87 0,2.69 0.16,5.72 0.47,9.09 0.31,3.37 0.78,6.4 1.4,9.1 1.25,5.12 3.6,9.43 7.03,12.93 3.43,3.51 8.47,4.45 15.13,2.83zm211.59 -137.03c2.29,-1.07 5.72,-0.8 10.3,0.82 4.58,1.61 9.16,4.03 13.74,7.27 4.57,3.23 8.47,7 11.7,11.32 3.22,4.31 4.73,8.49 4.52,12.53 -0.2,1.61 -0.57,4.04 -1.09,7.27 -0.52,3.24 -1.2,6.88 -2.03,10.92 -1.25,6.47 -2.65,13.81 -4.21,22.03 -1.56,8.21 -2.91,16.37 -4.06,24.45 -1.14,8.08 -1.87,15.7 -2.18,22.84 -0.32,7.14 0.05,12.87 1.09,17.18 0.62,3.23 1.67,4.85 3.12,4.85l3.75 0c5.61,-1.89 10.45,-5.19 14.51,-9.9 4.06,-4.72 7.65,-10.04 10.77,-15.97 3.12,-5.93 5.87,-12.19 8.27,-18.8 2.39,-6.6 4.63,-13 6.7,-19.2l2.5 -8.49c0.83,-1.88 2.24,-2.89 4.22,-3.03 1.97,-0.13 3.9,0.41 5.77,1.62 1.87,1.21 3.43,2.97 4.68,5.26 1.25,2.28 1.56,4.78 0.94,7.47l-4.06 10.51 0 -0.4c-3.95,11.86 -8.27,23.44 -12.95,34.76 -4.69,11.32 -10.77,21.29 -18.26,29.91 -1.25,1.35 -2.86,2.9 -4.84,4.65 -1.97,1.75 -4.31,3.44 -7.02,5.05 -2.7,1.62 -5.72,2.9 -9.05,3.84 -3.33,0.95 -6.97,1.42 -10.92,1.42 -8.33,-0.27 -15.35,-3.57 -21.07,-9.9 -5.72,-6.34 -9.72,-14.22 -12.01,-23.65 -1.05,-2.97 -1.67,-5.53 -1.88,-7.68 -2.28,4.85 -4.78,9.5 -7.49,13.94 -2.7,4.45 -5.72,8.56 -9.04,12.33 -1.25,1.35 -2.86,2.9 -4.84,4.65 -1.98,1.75 -4.32,3.44 -7.03,5.05 -2.7,1.62 -5.72,2.9 -9.05,3.84 -3.32,0.95 -6.97,1.42 -10.92,1.42 -8.11,-0.27 -14.98,-3.57 -20.59,-9.9 -5.63,-6.34 -9.58,-14.08 -11.87,-23.25 -0.41,-2.15 -0.83,-4.38 -1.25,-6.67 -0.41,-2.29 -0.72,-4.64 -0.93,-7.07 -0.62,-8.36 -0.37,-18.73 0.78,-31.12 1.14,-12.4 2.34,-25.07 3.59,-38 1.04,-9.16 1.92,-18.12 2.65,-26.88 0.73,-8.76 0.99,-17.05 0.78,-24.86l1.56 -2.43c2.08,-1.07 5.36,-0.8 9.83,0.82 4.48,1.61 9,4.03 13.58,7.27 4.58,3.23 8.48,7 11.7,11.32 3.23,4.31 4.74,8.49 4.53,12.53 -0.21,2.15 -0.63,4.98 -1.25,8.49 -0.63,3.5 -1.35,7.27 -2.19,11.31 -1.24,6.47 -2.6,13.75 -4.05,21.83 -1.46,8.09 -2.71,16.1 -3.75,24.05 -1.04,7.95 -1.71,15.36 -2.03,22.24 -0.31,6.87 0.06,12.46 1.1,16.77 0.62,3.23 1.66,4.85 3.12,4.85l3.43 0c5.41,-1.89 10.14,-5.12 14.2,-9.7 4.06,-4.58 7.59,-9.7 10.61,-15.36 3.02,-5.66 5.72,-11.73 8.11,-18.19 2.4,-6.47 4.64,-12.8 6.71,-19l-0.31 0c0.42,-1.08 0.78,-2.15 1.1,-3.23 0.31,-1.08 0.67,-2.16 1.09,-3.24l1.87 -16.98c1.04,-9.42 1.98,-18.72 2.81,-27.88 0.83,-9.17 1.15,-17.66 0.93,-25.47l1.56 -2.43zm218.77 88.53c-3.11,8.89 -6.97,18.73 -11.54,29.5 -4.58,10.78 -10.61,21.02 -18.1,30.72 -4.79,5.12 -9.78,9.17 -14.98,12.13 -5.2,2.96 -10.25,5.12 -15.14,6.47 -4.89,1.35 -9.42,2.22 -13.57,2.62 -4.17,0.41 -7.5,0.61 -9.99,0.61 -15.4,0 -28.35,-4.17 -38.86,-12.53 -10.5,-8.35 -17.84,-19.81 -22,-34.36 -3.74,-12.93 -4.73,-25.66 -2.96,-38.2 1.77,-12.52 5.98,-26.07 12.64,-40.62 2.29,-4.85 5.61,-9.97 9.98,-15.36 4.37,-5.39 9.57,-10.44 15.61,-15.16 6.03,-4.71 12.69,-8.55 19.97,-11.52 7.28,-2.96 14.88,-4.31 22.78,-4.04 7.91,0.27 14.78,2.77 20.6,7.48 5.83,4.71 9.67,10.98 11.55,18.8 1.87,6.73 1.35,14.42 -1.56,23.04 -1.04,1.88 -2.5,2.96 -4.37,3.23 -1.87,0.27 -3.64,0 -5.31,-0.81 -1.66,-0.81 -3.17,-2.22 -4.52,-4.24 -1.36,-2.02 -2.03,-4.25 -2.03,-6.67 0.62,-2.16 0.94,-4.24 0.94,-6.27 0,-2.02 -0.21,-3.7 -0.63,-5.05 -1.04,-4.31 -3.85,-6.06 -8.43,-5.25 -7.9,1.61 -14.71,5.59 -20.44,11.92 -5.72,6.33 -10.45,13.54 -14.2,21.63 -3.74,8.08 -6.55,16.43 -8.42,25.06 -1.88,8.62 -2.81,16.3 -2.81,23.03 0,3.51 0.52,7.55 1.56,12.13 1.67,6.2 4.52,12.13 8.58,17.79 4.06,5.65 9.11,9.43 15.14,11.32 4.37,0.8 9.15,0.47 14.35,-1.01 5.2,-1.49 10.41,-4.25 15.61,-8.29 5.2,-4.04 10.29,-9.3 15.29,-15.76 4.99,-6.47 9.36,-14.42 13.11,-23.85 2.29,-5.39 4.21,-10.51 5.77,-15.36 1.56,-4.85 2.97,-9.44 4.21,-13.75 0.84,-1.88 2.29,-2.96 4.37,-3.23 2.08,-0.27 4.11,0.2 6.09,1.41 1.98,1.22 3.53,2.9 4.68,5.06 1.14,2.15 1.3,4.58 0.47,7.27l-3.44 10.11zm60.55 -90.14c9.78,1.08 17.69,4.65 23.72,10.71 6.03,6.06 10.61,13 13.73,20.82 5.2,4.85 9.78,11.99 13.73,21.42l2.81 9.7c3.12,12.13 3.9,24.66 2.34,37.59 -1.56,12.94 -5.05,24.66 -10.45,35.17 -5.41,10.51 -12.43,19.06 -21.07,25.67 -8.63,6.6 -18.36,9.9 -29.18,9.9 -12.9,-0.27 -25.23,-4.38 -36.98,-12.33 -11.75,-7.95 -21.27,-20.14 -28.56,-36.58l0 0.41c-1.04,-2.16 -1.97,-4.45 -2.8,-6.88 -0.84,-2.42 -1.56,-4.98 -2.19,-7.68 -3.12,-12.39 -3.43,-25.12 -0.94,-38.2 2.5,-13.07 7.18,-24.99 14.05,-35.77 6.86,-10.78 15.6,-19.4 26.21,-25.87 10.61,-6.47 22.47,-9.16 35.58,-8.08zm11.24 72.35c-1.46,-0.54 -2.81,-1.82 -4.06,-3.84 -1.25,-2.02 -2.34,-4.24 -3.28,-6.67 -0.94,-2.42 -1.71,-4.91 -2.34,-7.48 -0.62,-2.55 -1.14,-4.91 -1.56,-7.07 -0.42,-2.42 -0.05,-4.78 1.09,-7.07 1.15,-2.29 2.5,-4.31 4.06,-6.07 1.56,-1.75 3.12,-3.16 4.68,-4.24 1.56,-1.08 2.65,-1.89 3.28,-2.42 0.41,-0.55 0.88,-0.88 1.4,-1.02 0.53,-0.13 0.99,-0.33 1.41,-0.6 -1.25,-1.08 -2.76,-1.96 -4.53,-2.63 -1.77,-0.67 -4,-0.87 -6.71,-0.6 -4.16,0.53 -8.79,2.35 -13.88,5.45 -5.1,3.1 -9.52,6.94 -13.27,11.52 -3.12,5.12 -5.82,10.78 -8.11,16.98 -2.29,6.2 -4.01,12.66 -5.15,19.4 -1.14,6.74 -1.72,13.34 -1.72,19.81 0,6.46 0.63,12.39 1.87,17.78 2.08,7.82 5.52,14.49 10.3,20.01 4.79,5.52 11.13,8.56 19.04,9.1 7.7,0.53 14.56,-2.16 20.6,-8.09 6.03,-5.93 10.87,-13.47 14.51,-22.63 3.64,-9.17 5.93,-19 6.87,-29.51 0.93,-10.51 0.25,-20.08 -2.03,-28.7 -0.21,-1.08 -0.58,-1.95 -1.1,-2.63 -0.52,-0.67 -0.98,-1.01 -1.4,-1.01 -1.87,0 -3.8,0.67 -5.77,2.02 -1.98,1.35 -3.75,3.03 -5.31,5.06 -1.56,2.02 -2.76,4.11 -3.59,6.26 -0.83,2.15 -1.14,4.18 -0.93,6.06l-4.37 2.83zm304.28 35.98c-1.88,4.85 -4.42,10.84 -7.65,17.99 -3.22,7.14 -7.12,14.07 -11.7,20.81 -4.58,6.74 -9.73,12.46 -15.45,17.18 -5.72,4.72 -12.02,7.08 -18.88,7.08 -4.16,0 -8.32,-0.68 -12.48,-2.03 -4.17,-1.34 -8.07,-3.5 -11.71,-6.46 -3.64,-2.97 -6.86,-6.74 -9.67,-11.32 -2.81,-4.59 -4.84,-10.11 -6.09,-16.58 -1.25,-5.65 -1.97,-11.31 -2.18,-16.97 -0.21,-5.66 -0.1,-11.66 0.31,-17.99 0.42,-6.33 1.15,-13.13 2.18,-20.41 1.04,-7.28 2.29,-15.36 3.75,-24.26 0.83,-4.31 1.35,-8.35 1.56,-12.12 0.21,-3.77 0.1,-6.74 -0.31,-8.89 -0.42,-1.35 -1.72,-1.28 -3.9,0.2 -2.19,1.48 -5.67,5.05 -10.46,10.71 -6.24,7 -11.6,13.88 -16.07,20.61 -4.47,6.74 -8.79,14.42 -12.95,23.04 -1.25,6.74 -2.19,13.75 -2.81,21.02 -0.63,8.63 -0.73,17.72 -0.31,27.29 0.41,9.57 1.46,19.06 3.12,28.49 0.41,2.16 -0.94,3.04 -4.06,2.63 -3.12,-0.4 -6.71,-1.48 -10.76,-3.23 -4.06,-1.75 -7.96,-3.84 -11.71,-6.27 -3.74,-2.42 -6.03,-4.71 -6.86,-6.87 -3.54,-15.9 -4.89,-31.66 -4.06,-47.29 0.83,-15.63 2.39,-31.12 4.68,-46.48 0.83,-6.47 1.4,-12.07 1.71,-16.78 0.32,-4.71 0.06,-7.34 -0.77,-7.88 -2.5,0 -7.39,3.91 -14.67,11.72 -6.03,7 -11.29,13.88 -15.76,20.61 -4.47,6.74 -8.79,14.02 -12.95,21.83 -2.08,12.67 -3.28,25.47 -3.6,38.4 -0.3,12.94 0.68,26.14 2.97,39.61 0.21,1.89 -1.24,2.63 -4.37,2.23 -3.12,-0.41 -6.65,-1.49 -10.61,-3.24 -3.95,-1.75 -7.75,-3.77 -11.39,-6.06 -3.64,-2.29 -5.88,-4.51 -6.71,-6.67 -1.67,-8.35 -2.7,-16.64 -3.12,-24.86 -0.42,-8.22 -0.47,-16.37 -0.16,-24.45 0.32,-8.09 0.89,-16.1 1.72,-24.05 0.83,-7.95 1.67,-15.97 2.5,-24.05 1.04,-8.35 1.92,-16.78 2.65,-25.27 0.73,-8.49 1.3,-17.45 1.71,-26.87 2.09,-1.08 5.16,-1.01 9.21,0.2 4.06,1.21 8.27,3.23 12.65,6.06 4.36,2.83 8.31,6.13 11.85,9.9 3.54,3.78 5.83,7.55 6.87,11.32 5.82,-7.81 12.38,-14.42 19.66,-19.81 7.28,-5.39 15.5,-8.35 24.65,-8.89 2.5,0 5.47,0.95 8.9,2.83 3.43,1.89 6.71,4.31 9.83,7.28 3.12,2.96 5.77,6.13 7.96,9.49 2.18,3.37 3.48,6.54 3.9,9.5 6.03,-7.81 12.69,-14.48 19.97,-20 7.28,-5.53 15.61,-8.56 24.97,-9.1 2.5,0 5.56,1.08 9.2,3.23 3.65,2.16 7.13,4.86 10.46,8.09 3.33,3.23 6.03,6.74 8.11,10.51 2.08,3.77 2.81,7 2.19,9.7l0 -0.4c-1.04,11.04 -2.19,20.68 -3.44,28.9 -1.24,8.22 -2.49,15.69 -3.74,22.43 -2.08,11.05 -3.49,20.82 -4.21,29.31 -0.73,8.49 -0.26,18.25 1.4,29.3 0.21,0.54 0.68,1.01 1.41,1.42 0.72,0.4 1.92,-0.07 3.58,-1.42 5.41,-2.96 11.24,-8.08 17.48,-15.36 6.25,-7.28 11.86,-16.98 16.85,-29.1 1.25,-3.24 2.45,-6.74 3.59,-10.51 1.15,-3.77 2.24,-7.55 3.28,-11.32l2.81 -6.47c0.83,-1.88 2.23,-2.9 4.21,-3.03 1.98,-0.13 3.9,0.4 5.77,1.62 1.88,1.21 3.39,2.83 4.53,4.85 1.14,2.02 1.41,4.38 0.78,7.07 -1.46,4.58 -3.02,9.23 -4.68,13.95 -1.66,4.71 -3.22,9.5 -4.68,14.35z"/>
   <path class="fil1" d="M1275.48 368.97l45.88 0 0 -60.55 -4.68 -104.55 59.92 165.1 31.2 0 59.92 -165.41 -4.36 104.86 0 60.55 45.87 0 0 -221.89 -60.23 0 -56.49 161.03 -57.11 -161.03 -59.92 0 0 221.89zm257.16 0l142.94 0 0 -36.83 -97.06 0 0 -185.06 -45.88 0 0 221.89z"/>
  </g>
 </g>
</svg>
